<svg id="visual" viewBox="0 0 900 600" width="900" height="600" xmlns="http://www.w3.org/2000/svg" xmlns:xlink="http://www.w3.org/1999/xlink" version="1.1"><rect width="900" height="600" fill="#001829"></rect><g><g transform="translate(763 552)"><path d="M0 -147L127.3 -73.5L127.3 73.5L0 147L-127.3 73.5L-127.3 -73.5Z" fill="#297EA6"></path></g><g transform="translate(347 4)"><path d="M0 -94L81.4 -47L81.4 47L0 94L-81.4 47L-81.4 -47Z" fill="#297EA6"></path></g><g transform="translate(689 214)"><path d="M0 -86L74.5 -43L74.5 43L0 86L-74.5 43L-74.5 -43Z" fill="#297EA6"></path></g><g transform="translate(418 382)"><path d="M0 -136L117.8 -68L117.8 68L0 136L-117.8 68L-117.8 -68Z" fill="#297EA6"></path></g></g></svg>